HIERARCHY
ROOT Hips
{
	OFFSET 0.000000 0.000000 0.000000
	CHANNELS 6 Xposition Yposition Zposition Zrotation Yrotation Xrotation 
	JOINT LeftUpLeg_virtual
	{
		OFFSET 0.000000 0.000000 0.000000
		CHANNELS 3 Zrotation Yrotation Xrotation
		JOINT LeftUpLeg
		{
			OFFSET 8.479694 -4.795517 -0.379053
			CHANNELS 3 Zrotation Yrotation Xrotation
			JOINT LeftLeg
			{
				OFFSET 0.485052 -32.551468 0.112863
				CHANNELS 3 Zrotation Yrotation Xrotation
				JOINT LeftFoot
				{
					OFFSET 0.438033 -32.635670 -3.012641
					CHANNELS 3 Zrotation Yrotation Xrotation
					JOINT LeftToeBase
					{
						OFFSET 0.970169 -13.225353 11.864223
						CHANNELS 3 Zrotation Yrotation Xrotation
						End Site
						{
							OFFSET 0.000000 0.000000 0.000000
						}
					}
				}
			}
		}
	}
	JOINT RightUpLeg_virtual
	{
		OFFSET 0.000000 0.000000 0.000000
		CHANNELS 3 Zrotation Yrotation Xrotation
		JOINT RightUpLeg
		{
			OFFSET -8.479694 -4.795517 -0.379053
			CHANNELS 3 Zrotation Yrotation Xrotation
			JOINT RightLeg
			{
				OFFSET -0.484100 -32.551483 0.112903
				CHANNELS 3 Zrotation Yrotation Xrotation
				JOINT RightFoot
				{
					OFFSET -0.438985 -32.635651 -3.012681
					CHANNELS 3 Zrotation Yrotation Xrotation
					JOINT RightToeBase
					{
						OFFSET -0.970169 -13.225354 11.864223
						CHANNELS 3 Zrotation Yrotation Xrotation
						End Site
						{
							OFFSET 0.000000 0.000000 0.000000
						}
					}
				}
			}
		}
	}
	JOINT Spine_virtual
	{
		OFFSET 0.000000 0.000000 0.000000
		CHANNELS 3 Zrotation Yrotation Xrotation
		JOINT Spine
		{
			OFFSET 0.000000 7.722015 1.166203
			CHANNELS 3 Zrotation Yrotation Xrotation
			JOINT Spine1
			{
				OFFSET 0.000000 12.024086 0.248766
				CHANNELS 3 Zrotation Yrotation Xrotation
				JOINT Spine2
				{
					OFFSET -0.000000 11.503036 -0.491240
					CHANNELS 3 Zrotation Yrotation Xrotation
					JOINT Neck_virtual
					{
						OFFSET 0.000000 0.000000 0.000000
						CHANNELS 3 Zrotation Yrotation Xrotation
						JOINT Neck
						{
							OFFSET 0.000000 18.430687 -3.123054
							CHANNELS 3 Zrotation Yrotation Xrotation
							JOINT Head
							{
								OFFSET -0.000000 9.051071 1.034021
								CHANNELS 3 Zrotation Yrotation Xrotation
								End Site
								{
									OFFSET 0.000000 0.000000 0.000000
								}
							}
						}
					}
					JOINT LeftShoulder_virtual
					{
						OFFSET 0.000000 0.000000 0.000000
						CHANNELS 3 Zrotation Yrotation Xrotation
						JOINT LeftShoulder
						{
							OFFSET 6.197824 13.665230 -4.064723
							CHANNELS 3 Zrotation Yrotation Xrotation
							JOINT LeftArm
							{
								OFFSET 7.778132 -0.187073 -1.709282
								CHANNELS 3 Zrotation Yrotation Xrotation
								JOINT LeftForeArm
								{
									OFFSET 21.954697 0.000000 -2.041093
									CHANNELS 3 Zrotation Yrotation Xrotation
									JOINT LeftHand
									{
										OFFSET 22.992908 0.000000 -0.870901
										CHANNELS 3 Zrotation Yrotation Xrotation
										End Site
										{
											OFFSET 0.000000 0.000000 0.000000
										}
									}
								}
							}
						}
					}
					JOINT RightShoulder_virtual
					{
						OFFSET 0.000000 0.000000 0.000000
						CHANNELS 3 Zrotation Yrotation Xrotation
						JOINT RightShoulder
						{
							OFFSET -6.197824 13.665230 -4.064723
							CHANNELS 3 Zrotation Yrotation Xrotation
							JOINT RightArm
							{
								OFFSET -7.778132 -0.187073 -1.709282
								CHANNELS 3 Zrotation Yrotation Xrotation
								JOINT RightForeArm
								{
									OFFSET -21.954697 0.000000 -2.041093
									CHANNELS 3 Zrotation Yrotation Xrotation
									JOINT RightHand
									{
										OFFSET -22.992908 0.000000 -0.870901
										CHANNELS 3 Zrotation Yrotation Xrotation
										End Site
										{
											OFFSET 0.000000 0.000000 0.000000
										}
									}
								}
							}
						}
					}
				}
			}
		}
	}
}
MOTION
Frames: 13
Frame Time: 0.033333
63.354595 80.439232 50.587769 0.135903 -24.799783 -0.204851 -6.107844 -0.181903 12.997349 -0.283703 -5.031207 -27.044240 7.505476 3.892851 29.259847 -5.400342 -6.443297 -6.542998 0.000000 0.000000 0.000000 -3.037392 -1.368982 12.330319 -0.730210 -2.235199 -31.254932 -2.149139 0.491804 59.431184 5.022594 15.386545 -6.212831 0.000000 0.000000 0.000000 -2.335333 1.310339 1.856696 1.030157 2.113136 -1.149902 -1.130149 -2.359772 7.100353 0.009688 -0.021239 -0.076547 -1.131932 -1.558957 5.724099 1.693662 -2.929249 -8.020088 0.000000 0.000000 0.000000 -0.094602 -0.953385 3.037614 -8.890196 -10.041122 -0.097842 -50.191474 -7.325053 7.479762 -5.132885 -30.286893 10.798602 0.000000 0.000000 0.000000 -3.568450 0.471558 2.189834 19.374935 3.988529 5.687217 40.407327 4.251808 12.554288 -24.961585 80.997301 -24.652569 0.000000 0.000000 0.000000 
62.810162 80.421585 52.149376 0.127788 -24.459862 -0.190872 -6.283339 0.035741 12.925453 -0.530694 -4.672446 -25.259681 7.500240 3.386056 28.853451 -5.408795 -6.346267 -7.879556 0.000000 0.000000 0.000000 -3.365538 -1.078013 12.132764 0.320384 -2.780030 -35.281089 -1.981701 0.846380 56.487956 4.960412 15.623703 -5.831760 0.000000 0.000000 0.000000 -2.656148 1.472548 1.674248 1.280839 1.882497 -0.794779 -1.060391 -2.459542 7.080041 0.007405 -0.057710 -0.041459 -1.081851 -1.601067 5.641954 1.514291 -2.657445 -8.301543 0.000000 0.000000 0.000000 -0.055533 -0.991105 2.897230 -8.957045 -10.412520 0.189294 -49.424936 -8.728620 7.772435 -5.614375 -31.620842 10.795762 0.000000 0.000000 0.000000 -3.444629 0.454743 2.168745 18.862032 4.109406 5.458514 40.735385 4.046286 11.789146 -23.907317 81.143549 -23.703311 0.000000 0.000000 0.000000 
62.206364 80.374947 53.696285 0.271506 -24.376363 -0.214399 -6.509782 0.170254 12.899389 -0.626997 -4.583374 -23.725152 7.556330 3.408206 28.575071 -5.508999 -6.357565 -9.157987 0.000000 0.000000 0.000000 -3.532228 -0.719148 11.923593 1.146316 -3.153726 -38.471245 -1.849331 1.300361 50.790383 5.322582 15.820928 -4.705833 0.000000 0.000000 0.000000 -2.994519 1.704016 1.576058 1.429661 1.822347 -0.493616 -1.016005 -2.482498 7.006595 -0.007968 -0.059057 -0.032493 -0.947573 -1.550036 5.701445 1.479377 -2.395790 -8.701203 0.000000 0.000000 0.000000 0.060750 -1.066138 2.996492 -9.068227 -10.685380 0.416647 -48.855298 -9.924463 8.117961 -6.052746 -33.114608 10.844281 0.000000 0.000000 0.000000 -3.277925 0.377224 2.270702 18.178789 4.091666 5.247907 41.337907 3.646969 11.033365 -22.912037 81.387189 -22.859880 0.000000 0.000000 0.000000 
61.537308 80.288139 55.183128 0.218265 -24.344942 -0.216176 -6.564987 0.321873 12.986402 -0.661209 -4.585656 -22.297619 7.612442 3.481947 28.519602 -5.571250 -6.369517 -10.339756 0.000000 0.000000 0.000000 -3.404671 -0.493403 11.776657 1.777834 -3.137041 -40.922860 -1.782149 1.802213 43.450945 5.955125 15.846717 -3.110367 0.000000 0.000000 0.000000 -3.179433 1.733274 1.667086 1.605162 1.659712 -0.223114 -0.882884 -2.354766 6.956053 -0.008045 0.026779 -0.065747 -0.846241 -1.572848 5.752604 1.508970 -2.099538 -9.120592 0.000000 0.000000 0.000000 0.129185 -1.085718 3.111224 -9.257435 -10.789878 0.581539 -48.556143 -10.848833 8.374649 -6.566084 -34.528293 11.140817 0.000000 0.000000 0.000000 -3.138608 0.375427 2.294232 17.149522 4.083242 5.009952 42.478050 3.093495 10.343612 -22.859806 81.913229 -23.018021 0.000000 0.000000 0.000000 
60.767097 80.144096 56.655251 0.141583 -24.395050 -0.110926 -6.516130 0.386365 13.110588 -0.685041 -4.602745 -21.045625 7.716944 3.585757 28.679449 -5.523267 -6.349093 -11.468197 0.000000 0.000000 0.000000 -3.327851 -0.350353 11.689832 2.207184 -2.742983 -42.919782 -1.726450 2.023514 35.990384 6.525311 15.645009 -1.421301 0.000000 0.000000 0.000000 -3.247100 1.926745 1.703556 1.745368 1.799237 -0.044464 -0.749778 -2.511546 6.941224 0.007034 -0.027993 -0.046877 -0.739597 -1.663410 5.785525 1.585396 -1.758878 -9.544309 0.000000 0.000000 0.000000 0.256305 -1.142144 3.126615 -9.549245 -10.637304 0.879223 -48.495036 -11.561943 8.792795 -6.929043 -35.822290 11.407336 0.000000 0.000000 0.000000 -3.022428 0.311735 2.423762 16.027100 3.993100 4.812055 43.668835 2.754240 9.689959 -24.178450 82.949485 -24.610814 0.000000 0.000000 0.000000 
59.883881 79.936043 58.146084 0.114920 -24.344316 -0.102015 -6.655267 0.443046 13.318221 -0.477397 -4.582692 -19.925335 7.799161 3.511254 29.073421 -5.473974 -6.554123 -12.727426 0.000000 0.000000 0.000000 -3.190233 -0.240489 11.703480 2.559518 -2.431960 -44.588336 -1.713688 2.385112 29.855474 6.939541 15.241063 -0.233261 0.000000 0.000000 0.000000 -3.235350 1.982448 1.872269 1.826153 1.815825 0.119662 -0.605112 -2.535150 6.966718 0.022120 -0.001362 -0.010266 -0.622580 -1.757701 5.827736 1.747280 -1.329189 -9.871107 0.000000 0.000000 0.000000 0.337154 -1.237861 3.193337 -9.779456 -10.468721 1.086777 -48.649846 -12.084036 9.333973 -7.390730 -36.880399 11.829124 0.000000 0.000000 0.000000 -2.909451 0.286962 2.425685 14.885185 3.856734 4.572712 45.195775 2.342121 9.158613 -29.394634 84.471852 -30.160131 0.000000 0.000000 0.000000 
58.790783 79.660339 59.719128 0.054991 -24.300797 -0.000123 -6.568620 0.364882 13.502813 -0.528942 -4.642541 -18.793706 8.081211 3.222542 29.540722 -5.179475 -6.658536 -13.927326 0.000000 0.000000 0.000000 -3.108714 -0.239001 11.700682 2.826467 -1.795913 -45.964899 -1.745203 2.678720 25.676995 6.965552 14.670333 0.245264 0.000000 0.000000 0.000000 -3.102971 2.053010 1.975601 1.879327 1.808935 0.158098 -0.482359 -2.596465 6.952036 0.027583 -0.004193 -0.017941 -0.478197 -1.820077 5.942235 1.951246 -1.111973 -10.064093 0.000000 0.000000 0.000000 0.492933 -1.353927 3.312473 -10.033738 -10.082789 1.199860 -48.939709 -12.383013 10.033206 -7.919068 -37.736372 12.384314 0.000000 0.000000 0.000000 -2.808755 0.215517 2.606218 13.739145 3.799090 4.399766 46.798090 2.237493 8.627623 -44.623849 86.204705 -45.775603 0.000000 0.000000 0.000000 
57.513859 79.361961 61.342548 0.162150 -24.303778 0.032208 -6.845455 0.240797 13.642826 -0.037682 -4.714193 -17.504303 8.019299 3.054678 29.997924 -4.772826 -6.902440 -15.180254 0.000000 0.000000 0.000000 -3.144569 -0.130646 11.721510 3.041505 -1.329639 -46.854872 -1.763755 2.859809 23.530143 6.767592 14.050094 0.149876 0.000000 0.000000 0.000000 -2.959171 2.120605 2.067062 1.851945 1.748473 0.133662 -0.425557 -2.667967 6.977254 -0.034773 0.009267 -0.011902 -0.251827 -1.753675 6.009131 2.192111 -1.019974 -10.115224 0.000000 0.000000 0.000000 0.709040 -1.298839 3.377359 -10.168888 -9.812055 1.508376 -49.160724 -12.815473 11.039101 -8.150700 -38.379127 12.672677 0.000000 0.000000 0.000000 -2.614805 0.234201 2.694296 12.719120 3.736752 4.181339 48.279981 2.290267 8.015829 -81.003721 87.386185 -82.574767 0.000000 0.000000 0.000000 
56.052456 79.082596 63.071407 0.111811 -24.292963 0.079481 -6.812204 0.077506 13.787938 0.297288 -4.955284 -15.853515 7.790565 2.658085 30.145112 -4.082644 -6.962498 -16.172054 0.000000 0.000000 0.000000 -3.061950 0.112504 11.697300 3.232427 -0.861843 -46.994126 -1.737907 2.955912 23.027640 6.307404 13.310305 -0.482693 0.000000 0.000000 0.000000 -2.676809 2.348435 2.141840 1.859331 1.673361 0.078288 -0.322722 -2.741231 6.971087 0.082573 0.026563 0.003502 -0.277801 -2.011603 6.106111 2.427678 -0.861600 -10.011548 0.000000 0.000000 0.000000 0.737470 -1.394214 3.412667 -10.199636 -9.466476 1.617700 -49.298151 -13.204022 12.083981 -8.635641 -38.841606 13.222311 0.000000 0.000000 0.000000 -2.662725 0.140786 2.757881 11.835257 3.675759 3.990388 49.656978 2.417026 7.435883 -127.749017 87.039915 -129.723365 0.000000 0.000000 0.000000 
54.407272 78.871681 64.900742 0.010808 -24.106326 0.210661 -6.686884 -0.014583 13.849004 0.614609 -5.246592 -13.960238 7.571182 2.162976 29.996917 -3.492824 -7.069617 -16.562995 0.000000 0.000000 0.000000 -2.927539 0.586770 11.727203 3.175495 -0.453227 -46.294667 -1.834953 3.537857 23.575187 5.795580 12.609152 -0.241069 0.000000 0.000000 0.000000 -2.327144 2.605715 2.152634 1.889246 1.585028 -0.103969 -0.205351 -2.720898 6.962345 0.050711 0.020033 0.058700 -0.161766 -2.110728 6.161334 2.708665 -0.798087 -9.795649 0.000000 0.000000 0.000000 0.848366 -1.536090 3.501795 -10.191965 -9.362802 1.838684 -49.365855 -13.803077 13.329436 -9.041228 -39.363036 13.629059 0.000000 0.000000 0.000000 -2.598803 0.033479 2.778514 11.141649 3.571865 3.773338 50.761443 2.475772 7.098910 -149.796840 85.719981 -152.131672 0.000000 0.000000 0.000000 
52.613556 78.772644 66.784546 -0.015574 -23.163113 0.265217 -6.460179 0.468239 13.761342 0.792549 -4.960754 -12.122060 7.571037 2.311027 30.127237 -2.212026 -6.034779 -16.390542 0.000000 0.000000 0.000000 -2.969482 0.944207 11.876525 2.807103 -0.049232 -44.751792 -2.034503 5.017580 24.992157 5.232871 11.953833 0.636134 0.000000 0.000000 0.000000 -1.982564 2.742570 2.247001 1.896005 1.175683 -0.335603 -0.163028 -2.964243 6.972934 0.003962 0.020418 0.060398 -0.053915 -2.124393 6.227565 2.963974 -0.771002 -9.433204 0.000000 0.000000 0.000000 1.000856 -1.659994 3.539820 -10.069603 -9.297329 1.916457 -49.327117 -14.334610 14.707317 -9.511222 -40.036831 14.177391 0.000000 0.000000 0.000000 -2.543541 -0.106472 2.686650 10.813558 3.501602 3.612085 51.422445 2.281872 6.995666 -158.686728 84.293086 -161.307376 0.000000 0.000000 0.000000 
50.714489 78.773079 68.775688 -0.291776 -22.367225 0.554046 -6.130481 0.919168 13.586118 1.125313 -4.364738 -10.653168 7.802132 3.065923 30.282600 -0.862589 -4.567662 -15.435504 0.000000 0.000000 0.000000 -3.035678 1.172130 12.197634 2.493232 0.287341 -42.584129 -1.967652 5.680843 26.378406 5.034309 11.670816 0.297595 0.000000 0.000000 0.000000 -1.587621 2.712249 2.192995 1.997596 1.006671 -0.705908 -0.060303 -3.109287 6.968233 -0.025542 -0.042819 0.089609 0.016470 -2.253695 6.299958 3.179009 -1.128740 -9.080168 0.000000 0.000000 0.000000 1.065384 -1.687170 3.578249 -9.933519 -9.263847 2.021826 -49.322910 -14.881799 15.979496 -10.092024 -41.071860 14.422038 0.000000 0.000000 0.000000 -2.497439 -0.154184 2.756155 10.513597 3.563518 3.465901 51.785012 1.915604 6.784654 -166.050764 83.274390 -168.864188 0.000000 0.000000 0.000000 
48.782646 78.859741 70.745544 -0.518855 -21.457738 0.645918 -5.834439 1.473472 13.483867 1.448614 -3.230062 -9.646562 8.384923 4.760145 30.990966 -0.112417 -3.386532 -13.210902 0.000000 0.000000 0.000000 -2.943026 1.322649 12.508500 2.236710 0.773264 -40.313016 -1.803374 5.769176 27.388336 4.677860 11.372994 -0.721342 0.000000 0.000000 0.000000 -1.274010 2.739821 2.261711 2.155035 0.780383 -1.027783 0.061985 -3.212358 6.966486 -0.044304 -0.072994 0.113184 0.095841 -2.333313 6.411476 3.389615 -1.022537 -8.627659 0.000000 0.000000 0.000000 1.141529 -1.787740 3.615237 -9.786399 -9.247801 2.076983 -49.357966 -15.484034 17.065595 -10.746790 -42.226111 14.975041 0.000000 0.000000 0.000000 -2.422620 -0.149757 2.659835 10.498452 3.596799 3.296495 51.862337 1.331411 6.757035 -169.156916 82.461311 -172.076999 0.000000 0.000000 0.000000 
